<svg width="55" height="80" viewBox="0 0 55 80" fill="none" xmlns="http://www.w3.org/2000/svg">
<path d="M1.17123 78.642C0.980163 78.5518 0.79835 78.4431 0.628366 78.3176C0.499271 78.2251 0.37907 78.1208 0.269309 78.006L1.21825 77.0925C1.28397 77.1615 1.35708 77.223 1.43625 77.2761C1.54111 77.3539 1.65438 77.4198 1.77393 77.4724C2.11673 77.6192 2.48673 77.6919 2.85966 77.6859C3.04941 77.7102 3.24223 77.6905 3.42312 77.6283C3.60401 77.5661 3.76811 77.4631 3.90264 77.3273C3.97131 77.2388 4.01684 77.1346 4.03514 77.0242C4.03514 76.9773 4.03514 76.9303 4.03514 76.8791V76.7553C4.04078 76.5889 4.00872 76.4234 3.94137 76.2712C3.87402 76.1189 3.7731 75.9838 3.64616 75.8759C3.26555 75.5992 2.84839 75.3766 2.40656 75.2143C1.97911 75.035 1.73546 74.9155 1.62005 74.8557C1.36052 74.722 1.11557 74.5617 0.88911 74.3776C0.644919 74.1724 0.449833 73.9153 0.318171 73.625C0.18651 73.3347 0.121614 73.0186 0.12825 72.7C0.112684 72.3922 0.167749 72.0848 0.289241 71.8015C0.410734 71.5181 0.595442 71.2663 0.829268 71.0651C1.3832 70.6398 2.0725 70.4291 2.76989 70.4717C3.54883 70.4676 4.31372 70.6788 4.97981 71.0821L4.30871 72.2048C4.112 72.0877 3.90264 71.9932 3.68463 71.9231C3.39448 71.8307 3.09154 71.7846 2.78699 71.7865C2.58241 71.7605 2.37465 71.7771 2.17678 71.8351C1.97891 71.8931 1.79518 71.9914 1.63715 72.1237C1.5614 72.2076 1.51101 72.3112 1.49182 72.4225C1.48923 72.4709 1.48923 72.5193 1.49182 72.5677V72.7C1.48932 72.8382 1.51934 72.9752 1.57947 73.0997C1.63961 73.2243 1.72817 73.333 1.83805 73.4171C2.10032 73.614 2.38785 73.7748 2.69295 73.8952L3.36832 74.1812C3.5222 74.2495 3.65899 74.3178 3.79577 74.3819C4.07707 74.5248 4.34097 74.6995 4.58228 74.9027C4.85571 75.1278 5.07463 75.4118 5.22267 75.7333C5.37071 76.0549 5.44404 76.4057 5.43718 76.7595C5.452 77.0659 5.39875 77.3718 5.28125 77.6552C5.16374 77.9386 4.9849 78.1925 4.75754 78.3987C4.24095 78.8234 3.58323 79.0382 2.91522 79.0006C2.31392 79.0177 1.71688 78.8949 1.17123 78.642Z" fill="#3F4494"/>
<path d="M8.80116 72.7897C9.09029 72.7756 9.37931 72.8197 9.65101 72.9195C9.92271 73.0192 10.1716 73.1725 10.3827 73.3702C10.7119 73.7044 10.9464 74.1198 11.0624 74.574C11.2129 75.2086 11.2462 75.8654 11.1607 76.512H7.30081C7.32529 76.7376 7.40938 76.9527 7.54446 77.1352C7.71059 77.3495 7.92808 77.5184 8.17684 77.6266C8.42561 77.7348 8.69765 77.7787 8.96787 77.7542C9.40678 77.7538 9.84174 77.6713 10.2502 77.5109C10.4255 77.4439 10.5944 77.361 10.7546 77.2633V78.5866C10.1436 78.8686 9.47849 79.0142 8.80543 79.0135C8.43503 79.0161 8.06769 78.9465 7.72398 78.8086C7.40325 78.6775 7.11243 78.4829 6.86908 78.2366C6.3476 77.7215 6.08685 76.9389 6.08685 75.8888C6.08685 74.8387 6.32765 74.0646 6.80924 73.5666C7.04743 73.3154 7.33643 73.1177 7.65703 72.9867C7.97763 72.8557 8.32247 72.7944 8.66865 72.8067L8.80116 72.7897ZM9.9339 75.2271C9.93953 74.9009 9.82028 74.5849 9.60049 74.3435C9.50266 74.2272 9.38025 74.1339 9.24204 74.0704C9.10384 74.0069 8.95327 73.9748 8.80116 73.9764H8.65155C8.47636 73.9702 8.30176 74 8.13855 74.0639C7.97534 74.1277 7.82697 74.2244 7.70261 74.3477C7.4417 74.615 7.28939 74.9694 7.27516 75.3424H9.91681L9.9339 75.2271Z" fill="#3F4494"/>
<path d="M14.5675 72.7897C15.298 72.7424 16.0196 72.971 16.5893 73.43C16.8472 73.6853 17.0464 73.9935 17.1734 74.3333C17.3003 74.673 17.3519 75.0363 17.3245 75.3979V78.8897H16.0422V75.5216C16.0422 74.9198 15.8969 74.5142 15.6147 74.3093C15.2916 74.14 14.9269 74.066 14.5632 74.0959C14.1233 74.0969 13.693 74.2243 13.3236 74.463V78.8897H12.0413V69.9894H13.3236V73.1312C13.6973 72.9016 14.1288 72.7831 14.5675 72.7897V72.7897Z" fill="#3F4494"/>
<path d="M18.6112 72.9988C19.2316 72.8529 19.8675 72.7827 20.5048 72.7897C20.9139 72.7566 21.325 72.8205 21.7046 72.9763C22.0842 73.1321 22.4216 73.3753 22.6891 73.6861C22.8739 73.9201 23.0066 74.1908 23.0781 74.4801C23.143 74.7252 23.1746 74.9779 23.1721 75.2314V78.2451C22.493 78.7704 21.6494 79.0381 20.7912 79.0007C20.108 79.0252 19.4359 78.8225 18.8805 78.4244C18.6504 78.2597 18.4604 78.0452 18.3248 77.7969C18.1783 77.4896 18.1107 77.1507 18.1282 76.8108C18.1102 76.4723 18.1778 76.1346 18.3248 75.829C18.4614 75.5803 18.6511 75.3646 18.8805 75.1972C19.4377 74.8036 20.1092 74.6041 20.7912 74.6295H21.8342C21.7958 74.5186 21.7355 74.4166 21.6569 74.3293C21.5784 74.2421 21.4832 74.1714 21.3768 74.1215C21.1083 74.0012 20.8161 73.9428 20.5219 73.9508C19.881 73.944 19.2427 74.0332 18.6283 74.2154L18.6112 72.9988ZM19.3892 76.7681C19.3752 76.9359 19.4077 77.1043 19.483 77.2549C19.5584 77.4054 19.6738 77.5324 19.8166 77.6219C20.1228 77.7734 20.4628 77.844 20.8041 77.8268C21.1884 77.8166 21.5672 77.7325 21.9197 77.5792V75.7778H20.8041C20.467 75.7566 20.1292 75.8061 19.8124 75.9229C19.6685 76.0057 19.5519 76.1284 19.4768 76.2762C19.4016 76.4241 19.3712 76.5905 19.3892 76.7553V76.7681Z" fill="#3F4494"/>
<path d="M26.8054 70.476C27.5394 70.4439 28.2603 70.6774 28.8358 71.1334C29.155 71.419 29.4047 71.7735 29.5662 72.17C29.7277 72.5664 29.7965 72.9944 29.7676 73.4214C29.7694 73.8333 29.688 74.2412 29.5283 74.6209C29.3948 74.9602 29.1925 75.2683 28.9341 75.5259C28.6911 75.7759 28.4004 75.9748 28.0792 76.1107C27.6849 76.2597 27.2654 76.3308 26.8439 76.3199C26.3994 76.3261 25.9563 76.27 25.5273 76.1534V78.8896H24.245V70.6681C25.0912 70.529 25.948 70.4647 26.8054 70.476V70.476ZM26.9166 74.9838C27.1378 74.9907 27.3574 74.9443 27.5568 74.8484C27.7562 74.7526 27.9296 74.6101 28.0621 74.4331C28.2805 74.1068 28.3898 73.7197 28.3742 73.3275C28.3981 72.9159 28.2721 72.5095 28.0194 72.1835C27.8713 72.0236 27.6892 71.8988 27.4866 71.8183C27.2839 71.7378 27.0658 71.7036 26.8482 71.7182C26.5022 71.7123 26.1563 71.7337 25.8137 71.7822C25.7223 71.7934 25.633 71.8178 25.5487 71.8548V74.7831C25.9923 74.917 26.4532 74.9846 26.9166 74.9838V74.9838Z" fill="#4AB9B1"/>
<path d="M31.9604 78.8896H30.6995V73.447C31.0652 73.1942 31.4757 73.0131 31.9091 72.9134C32.7276 72.7241 33.5808 72.7462 34.3884 72.9774V74.2239C33.9581 74.0665 33.5043 73.9828 33.0462 73.9763C32.6721 73.9676 32.3009 74.0434 31.9604 74.1983V78.8896Z" fill="#4AB9B1"/>
<path d="M35.1364 72.9988C35.7568 72.8529 36.3926 72.7827 37.03 72.7897C37.4391 72.7566 37.8502 72.8205 38.2298 72.9763C38.6094 73.1321 38.9467 73.3753 39.2143 73.6861C39.3991 73.9201 39.5317 74.1908 39.6032 74.4801C39.6681 74.7252 39.6998 74.9779 39.6973 75.2314V78.2451C39.0199 78.7705 38.1775 79.0382 37.3207 79.0007C36.636 79.0259 35.9624 78.8231 35.4057 78.4244C35.1755 78.2597 34.9856 78.0452 34.85 77.7969C34.7035 77.4896 34.6359 77.1507 34.6534 76.8108C34.6353 76.4723 34.7029 76.1346 34.85 75.829C34.9866 75.5803 35.1763 75.3646 35.4057 75.1972C35.9642 74.803 36.6372 74.6034 37.3207 74.6295H38.3423C38.3038 74.5186 38.2435 74.4166 38.165 74.3293C38.0864 74.2421 37.9912 74.1714 37.8849 74.1215C37.6164 74.0012 37.3242 73.9428 37.03 73.9508C36.3891 73.944 35.7508 74.0332 35.1364 74.2154V72.9988ZM35.9143 76.7681C35.9003 76.9359 35.9328 77.1043 36.0082 77.2549C36.0836 77.4054 36.199 77.5324 36.3418 77.6219C36.6494 77.7738 36.9908 77.8443 37.3335 77.8268C37.7178 77.8166 38.0966 77.7325 38.4491 77.5792V75.7778H37.3335C36.995 75.7563 36.6557 75.8057 36.3375 75.9229C36.1937 76.0057 36.0771 76.1284 36.0019 76.2762C35.9268 76.4241 35.8963 76.5905 35.9143 76.7553V76.7681Z" fill="#4AB9B1"/>
<path d="M40.4966 75.9016C40.4797 75.4382 40.5463 74.9755 40.6933 74.5356C40.822 74.2056 41.012 73.903 41.2532 73.6434C41.4946 73.384 41.7852 73.175 42.1081 73.0287C42.4508 72.8749 42.8225 72.7962 43.1981 72.7982C43.7236 72.7875 44.2465 72.8728 44.7412 73.0501V74.3648C44.4835 74.2152 44.2057 74.103 43.9162 74.0319C43.6794 73.9892 43.4388 73.9706 43.1981 73.9764C42.9791 73.96 42.7595 74 42.5604 74.0927C42.3613 74.1854 42.1894 74.3276 42.0611 74.5057C41.8612 74.9447 41.7577 75.4214 41.7577 75.9037C41.7577 76.386 41.8612 76.8627 42.0611 77.3017C42.1911 77.4795 42.3648 77.6209 42.5655 77.7121C42.7662 77.8033 42.987 77.8414 43.2067 77.8225C43.4473 77.8283 43.6879 77.8097 43.9248 77.767C44.2143 77.6958 44.4921 77.5837 44.7498 77.434V78.7531C44.2543 78.9267 43.7317 79.0106 43.2067 79.0007C42.831 79.0026 42.4593 78.924 42.1167 78.7701C41.7937 78.6238 41.5031 78.4149 41.2618 78.1555C41.0206 77.8959 40.8306 77.5932 40.7018 77.2633C40.553 76.8251 40.4836 76.364 40.4966 75.9016Z" fill="#4AB9B1"/>
<path d="M48.5499 78.8897C48.3783 78.9282 48.2039 78.9525 48.0284 78.9623C47.9586 78.9666 47.8887 78.9666 47.8189 78.9623H47.6437C47.3943 78.9834 47.1433 78.9497 46.9084 78.8634C46.6736 78.7771 46.4605 78.6403 46.2844 78.4628C45.9417 78.0446 45.7706 77.5122 45.8056 76.973V71.206H47.0538V72.9647H48.537V74.002H47.0538V76.8108C47.0326 77.074 47.0875 77.3377 47.2119 77.5707C47.2818 77.6575 47.3725 77.7254 47.4756 77.7679C47.5787 77.8104 47.6909 77.8263 47.8018 77.814C48.0547 77.8219 48.3062 77.7723 48.537 77.6688L48.5499 78.8897ZM48.5499 78.8897C48.3783 78.9282 48.2039 78.9525 48.0284 78.9623C47.9586 78.9666 47.8887 78.9666 47.8189 78.9623H47.6437C47.3943 78.9834 47.1433 78.9497 46.9084 78.8634C46.6736 78.7771 46.4605 78.6403 46.2844 78.4628C45.9417 78.0446 45.7706 77.5122 45.8056 76.973V71.206H47.0538V72.9647H48.537V74.002H47.0538V76.8108C47.0326 77.074 47.0875 77.3377 47.2119 77.5707C47.2818 77.6575 47.3725 77.7254 47.4756 77.7679C47.5787 77.8104 47.6909 77.8263 47.8018 77.814C48.0547 77.8219 48.3062 77.7723 48.537 77.6688L48.5499 78.8897Z" fill="#4AB9B1"/>
<path d="M52.042 78.9921C51.6532 78.995 51.2673 78.924 50.905 78.7829C50.5709 78.6514 50.266 78.4556 50.0074 78.2067C49.756 77.9648 49.5568 77.6743 49.4218 77.3529C49.1426 76.4011 49.1426 75.3892 49.4218 74.4374C49.5568 74.116 49.756 73.8255 50.0074 73.5836C50.2769 73.3238 50.5958 73.1205 50.9452 72.9856C51.2947 72.8507 51.6676 72.787 52.042 72.7982C52.4295 72.7954 52.814 72.8664 53.1748 73.0074C53.5038 73.1356 53.8044 73.3271 54.0596 73.5708C54.3147 73.8122 54.5182 74.1026 54.658 74.4246C54.9372 75.3764 54.9372 76.3883 54.658 77.3401C54.5182 77.6621 54.3147 77.9525 54.0596 78.1939C53.7941 78.4553 53.4787 78.6607 53.1321 78.7978C52.7855 78.935 52.4148 79.001 52.042 78.9921V78.9921ZM50.4263 75.9016C50.4263 76.6529 50.5973 77.1822 50.9435 77.4511C51.2526 77.7041 51.6426 77.8374 52.042 77.8267C52.4638 77.8391 52.8735 77.6859 53.1833 77.3999C53.4923 76.9588 53.658 76.4335 53.658 75.8952C53.658 75.3568 53.4923 74.8315 53.1833 74.3904C52.8735 74.1044 52.4638 73.9512 52.042 73.9636C51.6426 73.9529 51.2526 74.0862 50.9435 74.3392C50.5973 74.6209 50.4263 75.1417 50.4263 75.9016Z" fill="#4AB9B1"/>
<path d="M38.7099 13.0489C33.6062 11.892 28.6349 12.8141 26.955 13.5739C25.1384 14.3935 23.9116 15.5802 23.5354 17.0785C23.0182 19.2129 24.0612 21.9278 26.861 23.6993C28.746 24.8946 31.05 25.8337 33.4779 26.824C35.7477 27.7333 43.6427 30.8366 45.6731 32.1727C46.701 32.7941 47.6473 33.5412 48.49 34.3967C48.49 34.3967 49.4517 26.4697 48.9986 21.39C48.8148 19.3154 48.5712 17.3261 47.759 15.5333L47.6693 15.768C44.7427 14.6755 41.7503 13.7674 38.7099 13.0489V13.0489Z" fill="#4AB9B1"/>
<path d="M35.598 42.1487C32.9571 40.8704 30.2456 39.7431 27.4765 38.7722C27.4765 38.7722 18.8634 35.4298 17.3716 34.4138C15.8798 33.3979 14.2683 32.3435 13.0971 30.969C10.3101 27.7722 8.76587 23.6819 8.74563 19.4434C8.7634 17.0917 9.24564 14.7666 10.1647 12.6013C11.0838 10.4361 12.4216 8.47316 14.1016 6.82507C10.3203 6.95769 6.73794 8.54961 4.10797 11.266C1.47799 13.9824 0.00541542 17.6115 0 21.39V67.919L5.25764 61.1915L7.56587 58.2333L9.09187 56.2782L10.6264 54.3103L10.729 54.178L11.9472 50.8313C14.5171 52.0384 17.168 53.0654 19.8807 53.9048C20.3595 54.0286 20.8382 54.1481 21.3169 54.2548C25.164 55.036 29.3786 55.3647 32.4306 54.8311C33.3155 54.6774 34.0806 54.5067 34.7602 54.3189C35.4884 54.1052 36.2022 53.8457 36.8975 53.542C38.8552 52.573 39.4964 51.2753 39.8512 49.5123C40.347 47.0834 39.1886 44.2746 35.598 42.1487Z" fill="#3F4494"/>
<path d="M37.295 66.3866C35.6579 66.5659 33.9353 66.6769 32.1656 66.7196C31.6356 66.7196 31.1055 66.7452 30.5669 66.7452C21.163 66.7452 11.9045 64.487 5.34739 60.8116L10.5922 54.272L11.819 50.9424C13.003 51.5443 18.1623 54.0628 21.4281 54.7245C25.211 55.4886 29.5496 55.6209 32.7042 55.0659C38.4192 54.0713 39.7614 52.4236 40.3427 49.5166C40.9241 46.6096 39.3297 43.8435 35.94 41.8329C33.2851 40.5519 30.5593 39.4231 27.7757 38.4521C27.6902 38.4179 19.1754 35.1097 17.7263 34.1193L17.5511 33.9998C16.102 33.0265 14.6102 32.0191 13.5074 30.7257C10.763 27.5798 9.24548 23.5517 9.23291 19.3794C9.23291 14.0905 11.7463 9.03204 16.1362 5.48046L16.2089 5.42497C20.3381 2.27465 26.4677 0.998305 28.4938 0.772063C35.9144 -0.056069 43.6127 1.27577 51.3795 4.72917L47.4726 15.3498C44.701 14.2929 41.864 13.4159 38.9792 12.7245C33.5805 11.4994 28.6092 12.558 27.049 13.2623C25.0913 14.146 23.8603 15.4223 23.4884 16.9548C22.9925 18.9995 23.8645 21.9321 26.9336 23.8744C28.8101 25.0611 31.0628 26.0087 33.5976 27.0204L34.2943 27.2979C37.171 28.4462 43.9077 31.1398 45.7457 32.3478C47.0555 33.2019 48.2618 34.2046 49.3406 35.3359C52.591 38.6434 54.4298 43.0812 54.47 47.7152C54.4486 56.7905 47.229 64.645 37.295 66.3866ZM49.7381 34.9645C48.6321 33.8017 47.3941 32.7717 46.0492 31.8953C44.1641 30.6574 37.3933 27.951 34.508 26.7729L33.8027 26.5167C31.2936 25.5093 29.0666 24.583 27.2286 23.4176C24.3903 21.6205 23.5739 18.9483 24.027 17.0957C24.3561 15.7339 25.4803 14.5856 27.2756 13.7746C28.7246 13.1215 33.6446 12.0671 38.8595 13.2666C41.8013 13.984 44.694 14.8894 47.5196 15.9773L47.7804 16.0754L52.0549 4.4517L51.8198 4.34498C43.8863 0.776332 36.0041 -0.606734 28.4169 0.242742C26.3694 0.473253 20.1543 1.76241 15.9268 4.93834H15.7387V5.0792C11.2419 8.73323 8.66868 13.9368 8.66868 19.3794C8.68063 23.682 10.2453 27.8361 13.0757 31.08C14.2255 32.4332 15.7515 33.4619 17.2305 34.4566L17.4015 34.5718C18.9061 35.5963 27.2328 38.8405 27.5748 38.9686C30.3327 39.9298 33.0329 41.0486 35.6622 42.3195C38.821 44.1892 40.3256 46.7718 39.7913 49.4056C39.2442 52.1077 38.0302 53.5634 32.5973 54.5067C29.4855 55.0489 25.2452 54.9336 21.5264 54.1652C17.8931 53.4353 12.3405 50.5624 12.2849 50.5326L11.5027 50.1484L10.1177 53.9475L4.50104 60.9611L5.28327 61.3538C11.9729 65.1956 20.9579 67.2788 30.5755 67.2788C31.1184 67.2788 31.6569 67.2788 32.1913 67.2574C33.9652 67.2147 35.7006 67.0995 37.372 66.9202C47.588 65.1273 55 57.0424 55 47.7109C54.9654 42.9419 53.079 38.3724 49.7381 34.9645Z" fill="#3F4494"/>
<path d="M23.4884 16.9548L23.5434 16.9681L23.4884 16.9548Z" stroke="black" stroke-opacity="0.2"/>
</svg>
